{
  "version": "1.1.3",
  "modules": [
    {
      "id": 67,
      "plugin": "LittleUtils",
      "version": "1.0.0",
      "model": "BiasSemitone",
      "params": [
        {
          "id": 0,
          "value": 0.0
        },
        {
          "id": 1,
          "value": 0.0
        },
        {
          "id": 2,
          "value": 0.0
        },
        {
          "id": 3,
          "value": 0.0
        },
        {
          "id": 4,
          "value": 0.0
        },
        {
          "id": 5,
          "value": 1.0
        }
      ],
      "leftModuleId": 68,
      "rightModuleId": 69,
      "pos": [
        3,
        0
      ]
    },
    {
      "id": 68,
      "plugin": "LittleUtils",
      "version": "1.0.0",
      "model": "Button",
      "params": [
        {
          "id": 0,
          "value": 0.0
        }
      ],
      "rightModuleId": 67,
      "data": {
        "toggle": false,
        "const_choice": 0
      },
      "pos": [
        0,
        0
      ]
    },
    {
      "id": 69,
      "plugin": "LittleUtils",
      "version": "1.0.0",
      "model": "MultiplyDivide",
      "params": [
        {
          "id": 0,
          "value": 0.0
        },
        {
          "id": 1,
          "value": 0.0
        },
        {
          "id": 2,
          "value": 0.0
        },
        {
          "id": 3,
          "value": 0.0
        }
      ],
      "leftModuleId": 67,
      "rightModuleId": 70,
      "pos": [
        8,
        0
      ]
    },
    {
      "id": 70,
      "plugin": "LittleUtils",
      "version": "1.0.0",
      "model": "PulseGenerator",
      "params": [
        {
          "id": 0,
          "value": 5.0
        },
        {
          "id": 1,
          "value": 0.0
        },
        {
          "id": 2,
          "value": 1.0
        }
      ],
      "leftModuleId": 69,
      "rightModuleId": 71,
      "data": {
        "realtimeUpdate": true
      },
      "pos": [
        11,
        0
      ]
    },
    {
      "id": 71,
      "plugin": "LittleUtils",
      "version": "1.0.0",
      "model": "TeleportIn",
      "params": [],
      "leftModuleId": 70,
      "rightModuleId": 72,
      "data": {
        "label": " "
      },
      "pos": [
        14,
        0
      ]
    },
    {
      "id": 72,
      "plugin": "LittleUtils",
      "version": "1.0.0",
      "model": "TeleportOut",
      "params": [],
      "leftModuleId": 71,
      "data": {
        "label": " "
      },
      "pos": [
        17,
        0
      ]
    },
    {
      "id": 76,
      "plugin": "LittleUtils",
      "version": "1.0.0",
      "model": "Button",
      "params": [
        {
          "id": 0,
          "value": 0.0
        }
      ],
      "leftModuleId": 77,
      "rightModuleId": 78,
      "data": {
        "toggle": false,
        "const_choice": 2
      },
      "pos": [
        44,
        0
      ]
    },
    {
      "id": 77,
      "plugin": "Fundamental",
      "version": "1.2.0",
      "model": "LFO",
      "params": [
        {
          "id": 0,
          "value": 0.0
        },
        {
          "id": 1,
          "value": 1.0
        },
        {
          "id": 2,
          "value": 6.97543955
        },
        {
          "id": 3,
          "value": 0.0
        },
        {
          "id": 4,
          "value": 0.0
        },
        {
          "id": 5,
          "value": 0.5
        },
        {
          "id": 6,
          "value": 0.0
        }
      ],
      "rightModuleId": 76,
      "pos": [
        34,
        0
      ]
    },
    {
      "id": 78,
      "plugin": "Fundamental",
      "version": "1.2.0",
      "model": "Scope",
      "params": [
        {
          "id": 0,
          "value": 0.0
        },
        {
          "id": 1,
          "value": 0.0
        },
        {
          "id": 2,
          "value": -0.0
        },
        {
          "id": 3,
          "value": 0.0
        },
        {
          "id": 4,
          "value": 14.0
        },
        {
          "id": 5,
          "value": 0.0
        },
        {
          "id": 6,
          "value": 0.0
        },
        {
          "id": 7,
          "value": 0.0
        }
      ],
      "leftModuleId": 76,
      "rightModuleId": 79,
      "data": {
        "lissajous": 0,
        "external": 0
      },
      "pos": [
        47,
        0
      ]
    },
    {
      "id": 79,
      "plugin": "Fundamental",
      "version": "1.2.0",
      "model": "Scope",
      "params": [
        {
          "id": 0,
          "value": 0.0
        },
        {
          "id": 1,
          "value": 0.0
        },
        {
          "id": 2,
          "value": 0.0
        },
        {
          "id": 3,
          "value": 0.0
        },
        {
          "id": 4,
          "value": 14.0
        },
        {
          "id": 5,
          "value": 0.0
        },
        {
          "id": 6,
          "value": 0.0
        },
        {
          "id": 7,
          "value": 0.0
        }
      ],
      "leftModuleId": 78,
      "rightModuleId": 80,
      "data": {
        "lissajous": 0,
        "external": 0
      },
      "pos": [
        60,
        0
      ]
    },
    {
      "id": 80,
      "plugin": "Fundamental",
      "version": "1.2.0",
      "model": "Scope",
      "params": [
        {
          "id": 0,
          "value": 0.0
        },
        {
          "id": 1,
          "value": 0.0
        },
        {
          "id": 2,
          "value": 0.0
        },
        {
          "id": 3,
          "value": 0.0
        },
        {
          "id": 4,
          "value": 14.0
        },
        {
          "id": 5,
          "value": 0.0
        },
        {
          "id": 6,
          "value": 0.0
        },
        {
          "id": 7,
          "value": 0.0
        }
      ],
      "leftModuleId": 79,
      "rightModuleId": 81,
      "data": {
        "lissajous": 0,
        "external": 0
      },
      "pos": [
        73,
        0
      ]
    },
    {
      "id": 81,
      "plugin": "Fundamental",
      "version": "1.2.0",
      "model": "Scope",
      "params": [
        {
          "id": 0,
          "value": 0.0
        },
        {
          "id": 1,
          "value": 0.0
        },
        {
          "id": 2,
          "value": 0.0
        },
        {
          "id": 3,
          "value": 0.0
        },
        {
          "id": 4,
          "value": 14.0
        },
        {
          "id": 5,
          "value": 0.0
        },
        {
          "id": 6,
          "value": 0.929999828
        },
        {
          "id": 7,
          "value": 0.0
        }
      ],
      "leftModuleId": 80,
      "data": {
        "lissajous": 0,
        "external": 0
      },
      "pos": [
        86,
        0
      ]
    },
    {
      "id": 82,
      "plugin": "LittleUtils",
      "version": "1.0.0",
      "model": "BiasSemitone",
      "params": [
        {
          "id": 0,
          "value": 0.0
        },
        {
          "id": 1,
          "value": 0.498000056
        },
        {
          "id": 2,
          "value": 0.497999698
        },
        {
          "id": 3,
          "value": -0.495999992
        },
        {
          "id": 4,
          "value": 0.0
        },
        {
          "id": 5,
          "value": 1.0
        }
      ],
      "leftModuleId": 97,
      "rightModuleId": 85,
      "pos": [
        161,
        0
      ]
    },
    {
      "id": 83,
      "plugin": "LittleUtils",
      "version": "1.0.0",
      "model": "BiasSemitone",
      "params": [
        {
          "id": 0,
          "value": 0.0
        },
        {
          "id": 1,
          "value": 0.194999844
        },
        {
          "id": 2,
          "value": 0.338999987
        },
        {
          "id": 3,
          "value": 0.0
        },
        {
          "id": 4,
          "value": 0.0
        },
        {
          "id": 5,
          "value": 0.0
        }
      ],
      "rightModuleId": 86,
      "pos": [
        128,
        0
      ]
    },
    {
      "id": 85,
      "plugin": "Fundamental",
      "version": "1.2.0",
      "model": "Merge",
      "params": [],
      "leftModuleId": 82,
      "data": {
        "channels": -1
      },
      "pos": [
        166,
        0
      ]
    },
    {
      "id": 86,
      "plugin": "Fundamental",
      "version": "1.2.0",
      "model": "Merge",
      "params": [],
      "leftModuleId": 83,
      "rightModuleId": 95,
      "data": {
        "channels": -1
      },
      "pos": [
        133,
        0
      ]
    },
    {
      "id": 94,
      "plugin": "Fundamental",
      "version": "1.2.0",
      "model": "Scope",
      "params": [
        {
          "id": 0,
          "value": -0.0
        },
        {
          "id": 1,
          "value": 0.0
        },
        {
          "id": 2,
          "value": -0.0
        },
        {
          "id": 3,
          "value": 0.0
        },
        {
          "id": 4,
          "value": 13.0299969
        },
        {
          "id": 5,
          "value": 0.0
        },
        {
          "id": 6,
          "value": 1.3499999
        },
        {
          "id": 7,
          "value": 0.0
        }
      ],
      "data": {
        "lissajous": 0,
        "external": 0
      },
      "pos": [
        174,
        0
      ]
    },
    {
      "id": 95,
      "plugin": "Fundamental",
      "version": "1.2.0",
      "model": "VCO",
      "params": [
        {
          "id": 0,
          "value": 1.0
        },
        {
          "id": 1,
          "value": 1.0
        },
        {
          "id": 2,
          "value": -30.6180038
        },
        {
          "id": 3,
          "value": 0.0
        },
        {
          "id": 4,
          "value": 0.0
        },
        {
          "id": 5,
          "value": 0.5
        },
        {
          "id": 6,
          "value": 0.0
        }
      ],
      "leftModuleId": 86,
      "pos": [
        138,
        0
      ]
    },
    {
      "id": 97,
      "plugin": "Fundamental",
      "version": "1.2.0",
      "model": "VCO",
      "params": [
        {
          "id": 0,
          "value": 1.0
        },
        {
          "id": 1,
          "value": 1.0
        },
        {
          "id": 2,
          "value": -30.6180038
        },
        {
          "id": 3,
          "value": 0.0
        },
        {
          "id": 4,
          "value": 0.0
        },
        {
          "id": 5,
          "value": 0.5
        },
        {
          "id": 6,
          "value": 0.0
        }
      ],
      "rightModuleId": 82,
      "pos": [
        151,
        0
      ]
    },
    {
      "id": 99,
      "plugin": "LittleUtils",
      "version": "1.0.0",
      "model": "PulseGenerator",
      "params": [
        {
          "id": 0,
          "value": 1.95030785
        },
        {
          "id": 1,
          "value": 0.0
        },
        {
          "id": 2,
          "value": 1.0
        }
      ],
      "leftModuleId": 100,
      "rightModuleId": 101,
      "data": {
        "realtimeUpdate": true
      },
      "pos": [
        211,
        0
      ]
    },
    {
      "id": 100,
      "plugin": "Fundamental",
      "version": "1.2.0",
      "model": "LFO",
      "params": [
        {
          "id": 0,
          "value": 1.0
        },
        {
          "id": 1,
          "value": 1.0
        },
        {
          "id": 2,
          "value": 6.58899546
        },
        {
          "id": 3,
          "value": 0.142499998
        },
        {
          "id": 4,
          "value": 0.0
        },
        {
          "id": 5,
          "value": 0.236870319
        },
        {
          "id": 6,
          "value": 0.0
        }
      ],
      "rightModuleId": 99,
      "pos": [
        201,
        0
      ]
    },
    {
      "id": 101,
      "plugin": "Fundamental",
      "version": "1.2.0",
      "model": "Scope",
      "params": [
        {
          "id": 0,
          "value": 0.0
        },
        {
          "id": 1,
          "value": 0.0
        },
        {
          "id": 2,
          "value": 0.0
        },
        {
          "id": 3,
          "value": 0.0
        },
        {
          "id": 4,
          "value": 14.0
        },
        {
          "id": 5,
          "value": 0.0
        },
        {
          "id": 6,
          "value": 1.11374998
        },
        {
          "id": 7,
          "value": 0.0
        }
      ],
      "leftModuleId": 99,
      "data": {
        "lissajous": 0,
        "external": 0
      },
      "pos": [
        214,
        0
      ]
    },
    {
      "id": 104,
      "plugin": "LittleUtils",
      "version": "1.0.0",
      "model": "MultiplyDivide",
      "params": [
        {
          "id": 0,
          "value": 2.0
        },
        {
          "id": 1,
          "value": 1.0
        },
        {
          "id": 2,
          "value": 1.0
        },
        {
          "id": 3,
          "value": 1.0
        }
      ],
      "leftModuleId": 106,
      "rightModuleId": 107,
      "pos": [
        261,
        0
      ]
    },
    {
      "id": 105,
      "plugin": "Fundamental",
      "version": "1.2.0",
      "model": "LFO",
      "params": [
        {
          "id": 0,
          "value": 1.0
        },
        {
          "id": 1,
          "value": 1.0
        },
        {
          "id": 2,
          "value": -0.674005389
        },
        {
          "id": 3,
          "value": 0.0
        },
        {
          "id": 4,
          "value": 0.0
        },
        {
          "id": 5,
          "value": 0.5
        },
        {
          "id": 6,
          "value": 0.0
        }
      ],
      "rightModuleId": 106,
      "pos": [
        241,
        0
      ]
    },
    {
      "id": 106,
      "plugin": "Fundamental",
      "version": "1.2.0",
      "model": "LFO",
      "params": [
        {
          "id": 0,
          "value": 0.0
        },
        {
          "id": 1,
          "value": 1.0
        },
        {
          "id": 2,
          "value": 0.216996938
        },
        {
          "id": 3,
          "value": 0.0
        },
        {
          "id": 4,
          "value": 0.0
        },
        {
          "id": 5,
          "value": 0.5
        },
        {
          "id": 6,
          "value": 0.0
        }
      ],
      "leftModuleId": 105,
      "rightModuleId": 104,
      "pos": [
        251,
        0
      ]
    },
    {
      "id": 107,
      "plugin": "Fundamental",
      "version": "1.2.0",
      "model": "Scope",
      "params": [
        {
          "id": 0,
          "value": 0.0
        },
        {
          "id": 1,
          "value": 0.0
        },
        {
          "id": 2,
          "value": 0.0
        },
        {
          "id": 3,
          "value": 0.0
        },
        {
          "id": 4,
          "value": 7.0950017
        },
        {
          "id": 5,
          "value": 0.0
        },
        {
          "id": 6,
          "value": 0.0
        },
        {
          "id": 7,
          "value": 0.0
        }
      ],
      "leftModuleId": 104,
      "data": {
        "lissajous": 0,
        "external": 0
      },
      "pos": [
        264,
        0
      ]
    },
    {
      "id": 108,
      "plugin": "Fundamental",
      "version": "1.2.0",
      "model": "LFO",
      "params": [
        {
          "id": 0,
          "value": 0.0
        },
        {
          "id": 1,
          "value": 1.0
        },
        {
          "id": 2,
          "value": 1.0
        },
        {
          "id": 3,
          "value": 0.0
        },
        {
          "id": 4,
          "value": 0.0
        },
        {
          "id": 5,
          "value": 0.5
        },
        {
          "id": 6,
          "value": 0.0
        }
      ],
      "rightModuleId": 109,
      "pos": [
        293,
        0
      ]
    },
    {
      "id": 109,
      "plugin": "LittleUtils",
      "version": "1.0.0",
      "model": "TeleportIn",
      "params": [],
      "leftModuleId": 108,
      "rightModuleId": 110,
      "data": {
        "label": "sin"
      },
      "pos": [
        303,
        0
      ]
    },
    {
      "id": 110,
      "plugin": "LittleUtils",
      "version": "1.0.0",
      "model": "TeleportIn",
      "params": [],
      "leftModuleId": 109,
      "data": {
        "label": "sqr"
      },
      "pos": [
        306,
        0
      ]
    },
    {
      "id": 111,
      "plugin": "LittleUtils",
      "version": "1.0.0",
      "model": "TeleportOut",
      "params": [],
      "rightModuleId": 112,
      "data": {
        "label": "sin"
      },
      "pos": [
        312,
        0
      ]
    },
    {
      "id": 112,
      "plugin": "LittleUtils",
      "version": "1.0.0",
      "model": "TeleportOut",
      "params": [],
      "leftModuleId": 111,
      "rightModuleId": 113,
      "data": {
        "label": "sqr"
      },
      "pos": [
        315,
        0
      ]
    },
    {
      "id": 113,
      "plugin": "Fundamental",
      "version": "1.2.0",
      "model": "Scope",
      "params": [
        {
          "id": 0,
          "value": 0.0
        },
        {
          "id": 1,
          "value": 0.0
        },
        {
          "id": 2,
          "value": 0.0
        },
        {
          "id": 3,
          "value": 0.0
        },
        {
          "id": 4,
          "value": 7.66999626
        },
        {
          "id": 5,
          "value": 0.0
        },
        {
          "id": 6,
          "value": 0.0
        },
        {
          "id": 7,
          "value": 0.0
        }
      ],
      "leftModuleId": 112,
      "data": {
        "lissajous": 0,
        "external": 0
      },
      "pos": [
        318,
        0
      ]
    }
  ],
  "cables": [
    {
      "id": 81,
      "outputModuleId": 77,
      "outputId": 3,
      "inputModuleId": 80,
      "inputId": 0,
      "color": "#0c8e15"
    },
    {
      "id": 85,
      "outputModuleId": 77,
      "outputId": 3,
      "inputModuleId": 81,
      "inputId": 0,
      "color": "#0c8e15"
    },
    {
      "id": 86,
      "outputModuleId": 82,
      "outputId": 0,
      "inputModuleId": 85,
      "inputId": 0,
      "color": "#c91847"
    },
    {
      "id": 91,
      "outputModuleId": 83,
      "outputId": 0,
      "inputModuleId": 86,
      "inputId": 0,
      "color": "#0986ad"
    },
    {
      "id": 92,
      "outputModuleId": 83,
      "outputId": 1,
      "inputModuleId": 86,
      "inputId": 1,
      "color": "#c9b70e"
    },
    {
      "id": 93,
      "outputModuleId": 83,
      "outputId": 2,
      "inputModuleId": 86,
      "inputId": 2,
      "color": "#0c8e15"
    },
    {
      "id": 123,
      "outputModuleId": 86,
      "outputId": 0,
      "inputModuleId": 95,
      "inputId": 0,
      "color": "#0986ad"
    },
    {
      "id": 128,
      "outputModuleId": 85,
      "outputId": 0,
      "inputModuleId": 94,
      "inputId": 0,
      "color": "#c9b70e"
    },
    {
      "id": 129,
      "outputModuleId": 95,
      "outputId": 0,
      "inputModuleId": 94,
      "inputId": 1,
      "color": "#0c8e15"
    },
    {
      "id": 141,
      "outputModuleId": 100,
      "outputId": 3,
      "inputModuleId": 99,
      "inputId": 0,
      "color": "#c91847"
    },
    {
      "id": 148,
      "outputModuleId": 106,
      "outputId": 0,
      "inputModuleId": 104,
      "inputId": 1,
      "color": "#0c8e15"
    },
    {
      "id": 150,
      "outputModuleId": 105,
      "outputId": 0,
      "inputModuleId": 104,
      "inputId": 0,
      "color": "#0986ad"
    },
    {
      "id": 151,
      "outputModuleId": 111,
      "outputId": 0,
      "inputModuleId": 113,
      "inputId": 0,
      "color": "#0c8e15"
    },
    {
      "id": 152,
      "outputModuleId": 112,
      "outputId": 0,
      "inputModuleId": 113,
      "inputId": 1,
      "color": "#c91847"
    },
    {
      "id": 153,
      "outputModuleId": 108,
      "outputId": 0,
      "inputModuleId": 109,
      "inputId": 0,
      "color": "#0986ad"
    },
    {
      "id": 154,
      "outputModuleId": 108,
      "outputId": 3,
      "inputModuleId": 110,
      "inputId": 0,
      "color": "#c9b70e"
    },
    {
      "id": 155,
      "outputModuleId": 104,
      "outputId": 1,
      "inputModuleId": 107,
      "inputId": 0,
      "color": "#c9b70e"
    },
    {
      "id": 147,
      "outputModuleId": 104,
      "outputId": 0,
      "inputModuleId": 107,
      "inputId": 1,
      "color": "#c9b70e"
    },
    {
      "id": 84,
      "outputModuleId": 76,
      "outputId": 3,
      "inputModuleId": 78,
      "inputId": 1,
      "color": "#c9b70e"
    },
    {
      "id": 156,
      "outputModuleId": 76,
      "outputId": 0,
      "inputModuleId": 81,
      "inputId": 1,
      "color": "#0986ad"
    },
    {
      "id": 82,
      "outputModuleId": 76,
      "outputId": 1,
      "inputModuleId": 80,
      "inputId": 1,
      "color": "#c91847"
    },
    {
      "id": 157,
      "outputModuleId": 76,
      "outputId": 2,
      "inputModuleId": 79,
      "inputId": 1,
      "color": "#c9b70e"
    },
    {
      "id": 158,
      "outputModuleId": 77,
      "outputId": 3,
      "inputModuleId": 78,
      "inputId": 0,
      "color": "#0c8e15"
    },
    {
      "id": 159,
      "outputModuleId": 77,
      "outputId": 3,
      "inputModuleId": 79,
      "inputId": 0,
      "color": "#0c8e15"
    },
    {
      "id": 142,
      "outputModuleId": 99,
      "outputId": 0,
      "inputModuleId": 101,
      "inputId": 1,
      "color": "#0986ad"
    },
    {
      "id": 160,
      "outputModuleId": 99,
      "outputId": 1,
      "inputModuleId": 101,
      "inputId": 0,
      "color": "#c9b70e"
    },
    {
      "id": 78,
      "outputModuleId": 77,
      "outputId": 3,
      "inputModuleId": 76,
      "inputId": 0,
      "color": "#c91847"
    },
    {
      "id": 88,
      "outputModuleId": 82,
      "outputId": 1,
      "inputModuleId": 85,
      "inputId": 1,
      "color": "#c9b70e"
    },
    {
      "id": 127,
      "outputModuleId": 97,
      "outputId": 0,
      "inputModuleId": 82,
      "inputId": 2,
      "color": "#0986ad"
    },
    {
      "id": 89,
      "outputModuleId": 82,
      "outputId": 2,
      "inputModuleId": 85,
      "inputId": 2,
      "color": "#0c8e15"
    },
    {
      "id": 125,
      "outputModuleId": 82,
      "outputId": 3,
      "inputModuleId": 85,
      "inputId": 3,
      "color": "#0c8e15"
    }
  ]
}